<svg xmlns="http://www.w3.org/2000/svg" width="46.572" height="72.258" viewBox="0 0 46.572 72.258">
  <g id="组_3" data-name="组 3" transform="translate(-45 41)">
    <path id="路径_1" data-name="路径 1" d="M243.117,418.957A2.117,2.117,0,0,1,241,416.84V405.785a2.117,2.117,0,1,1,4.234,0V416.84A2.117,2.117,0,0,1,243.117,418.957Z" transform="translate(-174.831 -387.699)" fill="#ffe1ba"/>
    <path id="路径_2" data-name="路径 2" d="M256,403.668v15.289a2.117,2.117,0,0,0,2.117-2.117V405.785A2.117,2.117,0,0,0,256,403.668Z" transform="translate(-187.714 -387.699)" fill="#ffd391"/>
    <path id="路径_3" data-name="路径 3" d="M145.123,275.918a2.117,2.117,0,0,0-3.1-.366c-3.59,3.092-9.571,4.939-16,4.939s-12.411-1.846-16-4.939a2.117,2.117,0,0,0-3.1.366,11.436,11.436,0,0,0-2.258,6.69c0,4.127,2.339,7.944,6.586,10.748a28.837,28.837,0,0,0,29.543,0c4.247-2.8,6.586-6.621,6.586-10.748a11.434,11.434,0,0,0-2.258-6.69Z" transform="translate(-57.737 -277.224)" fill="#c50048"/>
    <path id="路径_4" data-name="路径 4" d="M275.1,275.919a2.117,2.117,0,0,0-3.1-.366c-3.59,3.092-9.571,4.939-16,4.939v16.935a27.053,27.053,0,0,0,14.771-4.071c4.247-2.8,6.586-6.621,6.586-10.748a11.434,11.434,0,0,0-2.258-6.69Z" transform="translate(-187.714 -277.224)" fill="#81002f"/>
    <path id="路径_5" data-name="路径 5" d="M114.286,196.483c7.413,0,14.428-2.23,18.764-5.965,2.958-2.549,4.522-5.61,4.522-8.854s-1.564-6.305-4.521-8.853a2.117,2.117,0,0,0-3.1.366c-2.791,3.87-8.94,6.371-15.666,6.371s-12.875-2.5-15.666-6.371a2.117,2.117,0,0,0-3.1-.366c-2.958,2.549-4.521,5.61-4.521,8.854s1.564,6.305,4.522,8.854c4.336,3.735,11.35,5.965,18.764,5.965" transform="translate(-46 -188.982)" fill="#ff415b"/>
    <path id="路径_6" data-name="路径 6" d="M274.765,172.813a2.117,2.117,0,0,0-3.1.366c-2.791,3.87-8.94,6.371-15.666,6.371v16.935c7.413,0,14.428-2.23,18.764-5.965,2.958-2.548,4.522-5.61,4.522-8.854S277.723,175.361,274.765,172.813Z" transform="translate(-187.714 -188.983)" fill="#c50048"/>
    <path id="路径_7" data-name="路径 7" d="M144.248,61.144a19.786,19.786,0,0,0-7.659-5.122,2.117,2.117,0,0,0-2.709,2.825,6.675,6.675,0,0,1,.645,2.361c0,1.978-3.636,4.191-8.5,4.191-4.793,0-8.374-2.235-8.374-4.234a6.711,6.711,0,0,1,.649-2.37,2.117,2.117,0,0,0-2.7-2.83,19.905,19.905,0,0,0-7.759,5.128,11.739,11.739,0,0,0-3.177,7.834,11.42,11.42,0,0,0,2.221,6.637l.037.053c3.615,5.014,10.934,8.129,19.1,8.129s15.485-3.115,19.1-8.129l.04-.058a11.421,11.421,0,0,0,2.217-6.632A11.723,11.723,0,0,0,144.248,61.144Z" transform="translate(-57.736 -88.946)" fill="#c50048"/>
    <path id="路径_8" data-name="路径 8" d="M274.225,61.461a19.786,19.786,0,0,0-7.659-5.122,2.117,2.117,0,0,0-2.709,2.825,6.675,6.675,0,0,1,.645,2.361c0,1.978-3.636,4.191-8.5,4.191V84.062c8.166,0,15.485-3.115,19.1-8.129l.04-.058a11.421,11.421,0,0,0,2.217-6.632,11.724,11.724,0,0,0-3.132-7.783Z" transform="translate(-187.714 -89.263)" fill="#81002f"/>
    <path id="路径_9" data-name="路径 9" d="M191.007,9.194q-.029-.066-.063-.13c-1.46-2.782-4.217-3.83-6.432-4.671-2.6-.986-3.121-1.369-3.121-2.275A2.117,2.117,0,0,0,179.274,0a10.925,10.925,0,0,0-7.283,3.133,18.463,18.463,0,0,0-4.316,6.009,10.75,10.75,0,0,0-1.008,4.077c0,4.748,5.538,8.468,12.608,8.468,7.142,0,12.736-3.7,12.736-8.425A10.719,10.719,0,0,0,191.007,9.194Z" transform="translate(-110.988 -41)" fill="#ff415b"/>
    <path id="路径_10" data-name="路径 10" d="M267.732,9.194q-.029-.066-.063-.13c-1.46-2.782-4.217-3.83-6.432-4.671-2.6-.986-3.121-1.369-3.121-2.275A2.117,2.117,0,0,0,256,0V21.687c7.142,0,12.736-3.7,12.736-8.425A10.716,10.716,0,0,0,267.732,9.194Z" transform="translate(-187.714 -41)" fill="#c50048"/>
  </g>
</svg>
